<svg width="33" height="35" viewBox="0 0 33 35" fill="none" xmlns="http://www.w3.org/2000/svg">
<path d="M3.02083 32.889C2.38194 32.889 1.82292 32.6494 1.34375 32.1703C0.864583 31.6911 0.625 31.1321 0.625 30.4932V5.73625C0.625 5.09736 0.864583 4.53833 1.34375 4.05916C1.82292 3.58 2.38194 3.34041 3.02083 3.34041H5.61632V2.22236C5.61632 1.86032 5.7425 1.55685 5.99486 1.31194C6.24722 1.06703 6.56004 0.94458 6.93323 0.94458C7.30642 0.94458 7.61285 1.06703 7.85243 1.31194C8.09201 1.55685 8.21181 1.86032 8.21181 2.22236V3.34041H21.7882V2.22236C21.7882 1.86032 21.9144 1.55685 22.1667 1.31194C22.4191 1.06703 22.7319 0.94458 23.1051 0.94458C23.4783 0.94458 23.7847 1.06703 24.0243 1.31194C24.2639 1.55685 24.3837 1.86032 24.3837 2.22236V3.34041H26.9792C27.6181 3.34041 28.1771 3.58 28.6562 4.05916C29.1354 4.53833 29.375 5.09736 29.375 5.73625V16.797C29.375 17.1364 29.2594 17.4209 29.0284 17.6503C28.7976 17.8801 28.5115 17.9949 28.1699 17.9949C27.8286 17.9949 27.5448 17.8801 27.3186 17.6503C27.0923 17.4209 26.9792 17.1364 26.9792 16.797V13.3231H3.02083V30.4932H15.2396C15.579 30.4932 15.8635 30.6088 16.0933 30.8398C16.3227 31.0706 16.4375 31.3567 16.4375 31.6983C16.4375 32.0395 16.3227 32.3234 16.0933 32.5496C15.8635 32.7759 15.579 32.889 15.2396 32.889H3.02083ZM25.0226 34.4862C22.9348 34.4862 21.1549 33.7505 19.6831 32.2789C18.2115 30.807 17.4757 29.0272 17.4757 26.9394C17.4757 24.8516 18.2115 23.0717 19.6831 21.5999C21.1549 20.1283 22.9348 19.3925 25.0226 19.3925C27.1104 19.3925 28.8902 20.1283 30.3621 21.5999C31.8337 23.0717 32.5694 24.8516 32.5694 26.9394C32.5694 29.0272 31.8337 30.807 30.3621 32.2789C28.8902 33.7505 27.1104 34.4862 25.0226 34.4862ZM25.4618 26.8595V23.1492C25.4618 22.9341 25.3859 22.7533 25.2342 22.6069C25.0825 22.4605 24.9054 22.3873 24.7031 22.3873C24.4901 22.3873 24.3038 22.4632 24.1441 22.6149C23.9844 22.7666 23.9045 22.9437 23.9045 23.146V26.9394C23.9045 27.0877 23.9311 27.2311 23.9844 27.3698C24.0376 27.5088 24.1175 27.6448 24.224 27.7779L26.7795 30.4133C26.9392 30.5731 27.1256 30.6529 27.3385 30.6529C27.5515 30.6529 27.7378 30.5731 27.8976 30.4133C28.0573 30.2536 28.1372 30.0673 28.1372 29.8543C28.1372 29.6413 28.0573 29.455 27.8976 29.2953L25.4618 26.8595Z" fill="#B02024"/>
</svg>
