<svg width="24" height="24" viewBox="0 0 24 24" fill="none" xmlns="http://www.w3.org/2000/svg">
<path d="M6.07226 10.5306V5.22778H2.75004V6.63333C2.75004 7.59167 3.06416 8.42753 3.6924 9.14097C4.32062 9.85442 5.11393 10.3176 6.07226 10.5306ZM18.5945 10.5306C19.5528 10.3176 20.3461 9.85442 20.9743 9.14097C21.6026 8.42753 21.9167 7.59167 21.9167 6.63333V5.22778H18.5945V10.5306ZM11.375 21.5833V16.8556C10.225 16.6213 9.20282 16.1261 8.30837 15.3701C7.41393 14.6141 6.79632 13.6718 6.4556 12.5431C4.87965 12.3727 3.54865 11.7338 2.46254 10.6264C1.37643 9.519 0.833374 8.18794 0.833374 6.63333V5.22778C0.833374 4.70069 1.0211 4.24945 1.39655 3.87397C1.77179 3.49875 2.22296 3.31111 2.75004 3.31111H6.07226V2.41667C6.07226 1.88958 6.25997 1.43832 6.63544 1.06286C7.01066 0.687623 7.46185 0.5 7.98893 0.5H16.6778C17.2049 0.5 17.6561 0.687623 18.0316 1.06286C18.4068 1.43832 18.5945 1.88958 18.5945 2.41667V3.31111H21.9167C22.4438 3.31111 22.895 3.49875 23.2705 3.87397C23.6457 4.24945 23.8334 4.70069 23.8334 5.22778V6.63333C23.8334 8.18794 23.2903 9.519 22.2042 10.6264C21.1181 11.7338 19.7871 12.3727 18.2112 12.5431C17.8704 13.6718 17.2528 14.6141 16.3584 15.3701C15.4639 16.1261 14.4417 16.6213 13.2917 16.8556V21.5833H17.1889C17.4605 21.5833 17.6881 21.6758 17.8719 21.8606C18.0555 22.0452 18.1473 22.2742 18.1473 22.5474C18.1473 22.8204 18.0555 23.0475 17.8719 23.2285C17.6881 23.4095 17.4605 23.5 17.1889 23.5H7.47782C7.20629 23.5 6.97872 23.4076 6.79517 23.2227C6.61136 23.0381 6.51948 22.8092 6.51948 22.5359C6.51948 22.2629 6.61136 22.0359 6.79517 21.8549C6.97872 21.6739 7.20629 21.5833 7.47782 21.5833H11.375Z" fill="white"/>
</svg>
