<svg width="40" height="41" viewBox="0 0 40 41" fill="none" xmlns="http://www.w3.org/2000/svg">
<path d="M2.43054 32.4968V27.3058C2.43054 26.5338 2.7034 25.875 3.24912 25.3293C3.79483 24.7836 4.45369 24.5107 5.22568 24.5107H10.8559C11.3085 24.5107 11.741 24.6239 12.1536 24.8501C12.5663 25.0763 12.9189 25.3892 13.2118 25.7885C13.9838 26.9065 14.9687 27.7717 16.1667 28.384C17.3646 28.9962 18.6423 29.3024 20 29.3024C21.3576 29.3024 22.6354 28.9962 23.8333 28.384C25.0312 27.7717 26.0295 26.9065 26.8281 25.7885C27.121 25.3892 27.467 25.0763 27.8663 24.8501C28.2656 24.6239 28.6915 24.5107 29.1441 24.5107H34.7743C35.5463 24.5107 36.2052 24.7836 36.7509 25.3293C37.2965 25.875 37.5694 26.5338 37.5694 27.3058V32.4968C37.5694 32.8428 37.4563 33.1291 37.23 33.3553C37.0038 33.5816 36.7175 33.6947 36.3715 33.6947H28.3854C28.0394 33.6947 27.7531 33.5816 27.5269 33.3553C27.3006 33.1291 27.1875 32.8428 27.1875 32.4968V28.943C26.2292 29.8215 25.1311 30.5003 23.8932 30.9794C22.6554 31.4586 21.3576 31.6982 20 31.6982C18.6423 31.6982 17.3512 31.4586 16.1267 30.9794C14.9022 30.5003 13.7974 29.8215 12.8125 28.943V32.4968C12.8125 32.8428 12.6993 33.1291 12.4731 33.3553C12.2468 33.5816 11.9606 33.6947 11.6146 33.6947H3.62846C3.2824 33.6947 2.99622 33.5816 2.76995 33.3553C2.54368 33.1291 2.43054 32.8428 2.43054 32.4968ZM20 26.9065C19.0682 26.9065 18.1698 26.6869 17.3047 26.2477C16.4395 25.8084 15.7408 25.2028 15.2083 24.4308C14.7824 23.8185 14.27 23.3261 13.671 22.9534C13.072 22.5807 12.4265 22.3278 11.7344 22.1947C12.5064 21.3961 13.7176 20.7838 15.368 20.3579C17.0185 19.932 18.5625 19.719 20 19.719C21.4375 19.719 22.9881 19.932 24.6519 20.3579C26.3156 20.7838 27.5335 21.3961 28.3055 22.1947C27.6134 22.3278 26.9679 22.5807 26.3689 22.9534C25.77 23.3261 25.2575 23.8185 24.8316 24.4308C24.2991 25.2028 23.6004 25.8084 22.7352 26.2477C21.8701 26.6869 20.9583 26.9065 20 26.9065ZM7.22221 21.7156C6.02429 21.7156 4.99275 21.2829 4.12759 20.4178C3.26243 19.5527 2.82985 18.5211 2.82985 17.3232C2.82985 16.0987 3.26243 15.0605 4.12759 14.2086C4.99275 13.3567 6.02429 12.9308 7.22221 12.9308C8.44674 12.9308 9.48491 13.3567 10.3368 14.2086C11.1887 15.0605 11.6146 16.0987 11.6146 17.3232C11.6146 18.5211 11.1887 19.5527 10.3368 20.4178C9.48491 21.2829 8.44674 21.7156 7.22221 21.7156ZM32.7778 21.7156C31.5798 21.7156 30.5483 21.2829 29.6831 20.4178C28.818 19.5527 28.3854 18.5211 28.3854 17.3232C28.3854 16.0987 28.818 15.0605 29.6831 14.2086C30.5483 13.3567 31.5798 12.9308 32.7778 12.9308C34.0023 12.9308 35.0405 13.3567 35.8923 14.2086C36.7442 15.0605 37.1701 16.0987 37.1701 17.3232C37.1701 18.5211 36.7442 19.5527 35.8923 20.4178C35.0405 21.2829 34.0023 21.7156 32.7778 21.7156ZM20 16.9239C18.8021 16.9239 17.7705 16.4913 16.9054 15.6261C16.0402 14.761 15.6076 13.7294 15.6076 12.5315C15.6076 11.307 16.0402 10.2688 16.9054 9.41694C17.7705 8.56508 18.8021 8.13916 20 8.13916C21.2245 8.13916 22.2627 8.56508 23.1146 9.41694C23.9664 10.2688 24.3923 11.307 24.3923 12.5315C24.3923 13.7294 23.9664 14.761 23.1146 15.6261C22.2627 16.4913 21.2245 16.9239 20 16.9239Z" fill="#B02024"/>
</svg>
