<svg width="32" height="32" viewBox="0 0 32 32" fill="none" xmlns="http://www.w3.org/2000/svg">
<g filter="url(#filter0_i_30_624)">
<mask id="path-1-inside-1_30_624" fill="white">
<path d="M0 16C0 7.16344 7.16344 0 16 0C24.8366 0 32 7.16344 32 16C32 24.8366 24.8366 32 16 32C7.16344 32 0 24.8366 0 16Z"/>
</mask>
<path d="M0 16C0 7.16344 7.16344 0 16 0C24.8366 0 32 7.16344 32 16C32 24.8366 24.8366 32 16 32C7.16344 32 0 24.8366 0 16Z" fill="#1B1B1B"/>
<path d="M-0.666667 15.6667C-0.666667 6.64602 6.64602 -0.666667 15.6667 -0.666667H16.3333C25.354 -0.666667 32.6667 6.64602 32.6667 15.6667L31.3333 16C31.3333 7.53163 24.4684 0.666667 16 0.666667C7.53163 0.666667 0.666667 7.53163 0.666667 16L-0.666667 15.6667ZM32 32H0H32ZM15.6667 32C6.64602 32 -0.666667 24.6873 -0.666667 15.6667V15.6667C-0.666667 6.64602 6.64602 -0.666667 15.6667 -0.666667L16 0.666667C7.53163 0.666667 0.666667 7.53163 0.666667 16C0.666667 24.8366 7.53163 32 16 32H15.6667ZM16.3333 -0.666667C25.354 -0.666667 32.6667 6.64602 32.6667 15.6667V15.6667C32.6667 24.6873 25.354 32 16.3333 32H16C24.4684 32 31.3333 24.8366 31.3333 16C31.3333 7.53163 24.4684 0.666667 16 0.666667L16.3333 -0.666667Z" fill="white" fill-opacity="0.06" mask="url(#path-1-inside-1_30_624)"/>
<g clip-path="url(#clip0_30_624)">
<path d="M15.9999 8.64098C18.5055 8.64098 18.8023 8.65052 19.7917 8.69566C20.7066 8.73742 21.2035 8.89028 21.5342 9.01876C21.9721 9.18898 22.2848 9.39237 22.6131 9.72072C22.9415 10.049 23.1448 10.3617 23.315 10.7996C23.4435 11.1303 23.5964 11.6272 23.6382 12.5421C23.6833 13.5316 23.6929 13.8283 23.6929 16.3339C23.6929 18.8395 23.6833 19.1362 23.6382 20.1257C23.5964 21.0406 23.4435 21.5374 23.315 21.8681C23.1448 22.3061 22.9415 22.6187 22.6131 22.9471C22.2848 23.2754 21.9721 23.4788 21.5342 23.649C21.2035 23.7775 20.7066 23.9304 19.7917 23.9721C18.8024 24.0173 18.5057 24.0268 15.9999 24.0268C13.4942 24.0268 13.1975 24.0173 12.2081 23.9721C11.2932 23.9304 10.7964 23.7775 10.4657 23.649C10.0277 23.4788 9.7151 23.2754 9.38675 22.9471C9.05841 22.6187 8.85502 22.3061 8.68483 21.8681C8.55632 21.5374 8.40346 21.0406 8.3617 20.1257C8.31656 19.1362 8.30702 18.8395 8.30702 16.3339C8.30702 13.8283 8.31656 13.5316 8.3617 12.5421C8.40346 11.6272 8.55632 11.1303 8.68483 10.7996C8.85502 10.3617 9.05841 10.049 9.38675 9.72072C9.7151 9.39237 10.0277 9.18898 10.4657 9.01876C10.7964 8.89028 11.2932 8.73742 12.2081 8.69566C13.1976 8.65052 13.4944 8.64098 15.9999 8.64098ZM15.9999 6.9502C13.4515 6.9502 13.1319 6.961 12.1311 7.00667C11.1323 7.05226 10.4502 7.21086 9.85324 7.44284C9.2362 7.68265 8.71289 8.00351 8.19122 8.52518C7.66955 9.04685 7.34869 9.57014 7.10889 10.1872C6.8769 10.7841 6.7183 11.4662 6.6727 12.465C6.62704 13.4659 6.61627 13.7854 6.61627 16.3339C6.61627 18.8824 6.62704 19.2019 6.6727 20.2027C6.7183 21.2016 6.8769 21.8837 7.10889 22.4806C7.34869 23.0976 7.66955 23.6209 8.19122 24.1426C8.71289 24.6643 9.2362 24.9851 9.85324 25.225C10.4502 25.4569 11.1323 25.6155 12.1311 25.6611C13.1319 25.7068 13.4515 25.7176 15.9999 25.7176C18.5484 25.7176 18.868 25.7068 19.8688 25.6611C20.8676 25.6155 21.5497 25.4569 22.1466 25.225C22.7637 24.9851 23.287 24.6643 23.8087 24.1426C24.3303 23.6209 24.6512 23.0976 24.891 22.4806C25.123 21.8837 25.2816 21.2016 25.3272 20.2027C25.3728 19.2019 25.3836 18.8824 25.3836 16.3339C25.3836 13.7854 25.3728 13.4659 25.3272 12.465C25.2816 11.4662 25.123 10.7841 24.891 10.1872C24.6512 9.57014 24.3303 9.04685 23.8087 8.52518C23.287 8.00351 22.7637 7.68265 22.1466 7.44284C21.5497 7.21086 20.8676 7.05226 19.8688 7.00667C18.868 6.961 18.5484 6.9502 15.9999 6.9502ZM15.9999 11.5152C13.3387 11.5152 11.1813 13.6726 11.1813 16.3339C11.1813 18.9951 13.3387 21.1526 15.9999 21.1526C18.6612 21.1526 20.8186 18.9951 20.8186 16.3339C20.8186 13.6726 18.6612 11.5152 15.9999 11.5152ZM15.9999 19.4618C14.2725 19.4618 12.872 18.0614 12.872 16.3339C12.872 14.6064 14.2725 13.206 15.9999 13.206C17.7274 13.206 19.1279 14.6064 19.1279 16.3339C19.1279 18.0614 17.7274 19.4618 15.9999 19.4618ZM22.135 11.3248C22.135 11.9468 21.6309 12.4509 21.009 12.4509C20.3871 12.4509 19.8829 11.9468 19.8829 11.3248C19.8829 10.7029 20.3871 10.1988 21.009 10.1988C21.6309 10.1988 22.135 10.7029 22.135 11.3248Z" fill="#8A8B92"/>
</g>
</g>
<defs>
<filter id="filter0_i_30_624" x="0" y="0" width="32.1667" height="32.5" filterUnits="userSpaceOnUse" color-interpolation-filters="sRGB">
<feFlood flood-opacity="0" result="BackgroundImageFix"/>
<feBlend mode="normal" in="SourceGraphic" in2="BackgroundImageFix" result="shape"/>
<feColorMatrix in="SourceAlpha" type="matrix" values="0 0 0 0 0 0 0 0 0 0 0 0 0 0 0 0 0 0 127 0" result="hardAlpha"/>
<feMorphology radius="0.5" operator="erode" in="SourceAlpha" result="effect1_innerShadow_30_624"/>
<feOffset dx="0.166667" dy="0.833333"/>
<feComposite in2="hardAlpha" operator="arithmetic" k2="-1" k3="1"/>
<feColorMatrix type="matrix" values="0 0 0 0 1 0 0 0 0 1 0 0 0 0 1 0 0 0 0.1 0"/>
<feBlend mode="normal" in2="shape" result="effect1_innerShadow_30_624"/>
</filter>
<clipPath id="clip0_30_624">
<rect width="20" height="20" fill="white" transform="translate(6 6.3335)"/>
</clipPath>
</defs>
</svg>
