<svg width="34" height="36" viewBox="0 0 34 36" fill="none" xmlns="http://www.w3.org/2000/svg">
<path d="M0 19.2857C0 19.2857 1.59015 16.7143 6.53846 16.7143C11.4881 16.7143 13.0769 20.5714 13.0769 20.5714C13.0769 20.5714 18.3077 15.4286 23.5385 20.5714C23.5385 20.5714 18.2371 10.6869 17 6.42857L14.3846 7.71429H9.15385C9.15385 7.71429 6.13177 3.04071 10.4615 0C10.4615 0 17.2118 0.816429 20.9231 3.85714C24.6356 6.89786 32.1444 11.655 34 24.4286C34 24.4286 29.7252 29.6421 23.5385 30.8571C17.3518 32.0734 11.7692 30.8571 11.7692 30.8571C11.7692 30.8571 7.42377 36 0 36V19.2857Z" fill="#CF2B2F"/>
</svg>
