<svg width="26" height="26" viewBox="0 0 26 26" fill="none" xmlns="http://www.w3.org/2000/svg">
<path fill-rule="evenodd" clip-rule="evenodd" d="M2.5 0.8125C1.56802 0.8125 0.8125 1.56801 0.8125 2.5V23.5C0.8125 24.432 1.56801 25.1875 2.5 25.1875H23.5C24.432 25.1875 25.1875 24.432 25.1875 23.5V2.5C25.1875 1.56802 24.432 0.8125 23.5 0.8125H2.5ZM13.9375 9.25C13.9375 8.73224 13.5177 8.3125 13 8.3125C12.4823 8.3125 12.0625 8.73224 12.0625 9.25V12.0625H9.25C8.73224 12.0625 8.3125 12.4823 8.3125 13C8.3125 13.5177 8.73224 13.9375 9.25 13.9375H12.0625V16.75C12.0625 17.2677 12.4823 17.6875 13 17.6875C13.5177 17.6875 13.9375 17.2677 13.9375 16.75V13.9375H16.75C17.2677 13.9375 17.6875 13.5177 17.6875 13C17.6875 12.4823 17.2677 12.0625 16.75 12.0625H13.9375V9.25Z" fill="#B02024"/>
</svg>
