<svg width="40" height="41" viewBox="0 0 40 41" fill="none" xmlns="http://www.w3.org/2000/svg">
<path d="M15.375 13.8158C15.4297 13.808 15.4844 13.8002 15.5391 13.7924C15.5937 13.7846 15.6484 13.7846 15.7031 13.7767C15.8125 13.7689 15.9141 13.7533 16.0156 13.7455C16.1172 13.7377 16.2109 13.7299 16.3047 13.7221C16.3516 13.7221 16.3984 13.7142 16.4453 13.7142C16.4922 13.7142 16.5312 13.7064 16.5703 13.7064C16.6484 13.7064 16.7266 13.6986 16.7969 13.6986C16.8672 13.6986 16.9297 13.6908 16.9922 13.6908C17.0703 13.6908 17.1328 13.6908 17.1953 13.6908C17.2656 13.6908 17.3203 13.6908 17.375 13.6908C17.4922 13.6908 17.5859 13.5892 17.5781 13.4721L17.3203 9.47986C17.3125 9.36268 17.2109 9.27674 17.0937 9.29236C17.0391 9.30018 16.9844 9.30799 16.9141 9.3158C16.8516 9.32361 16.7812 9.33143 16.7031 9.33924C16.6172 9.35486 16.5156 9.37049 16.4141 9.3783C16.3125 9.39393 16.2031 9.40955 16.0859 9.42518C16.0234 9.43299 15.9687 9.4408 15.9141 9.45643C15.8594 9.46424 15.7969 9.47986 15.7422 9.48768C15.625 9.51111 15.5 9.53455 15.3672 9.55799C15.2422 9.58924 15.1094 9.62049 14.9766 9.65174C14.9062 9.66736 14.8437 9.68299 14.7734 9.69861C14.7031 9.71424 14.6328 9.73768 14.5625 9.7533C14.4219 9.79236 14.2812 9.83143 14.1328 9.87049C13.9922 9.91736 13.8437 9.95643 13.6953 10.0033C13.625 10.0267 13.5469 10.0502 13.4687 10.0736C13.3984 10.0971 13.3203 10.1205 13.2422 10.1517C13.1641 10.1752 13.0937 10.2064 13.0156 10.2299C12.9375 10.2533 12.8672 10.2846 12.7891 10.308C12.6406 10.3627 12.4922 10.4252 12.3437 10.4799C12.1953 10.5346 12.0469 10.6049 11.8984 10.6674C11.8281 10.6986 11.75 10.7299 11.6797 10.7611C11.6094 10.7924 11.5391 10.8236 11.4609 10.8627C11.3906 10.8939 11.3203 10.9252 11.25 10.9642C11.1797 10.9955 11.1094 11.0267 11.0391 11.0658C10.8984 11.1361 10.7656 11.2064 10.6328 11.2689C10.5 11.3392 10.375 11.4096 10.25 11.4799C10.125 11.5502 10 11.6127 9.88281 11.683C9.76562 11.7533 9.64844 11.8236 9.53906 11.8861C9.42969 11.9486 9.32812 12.0189 9.22656 12.0814C9.125 12.1439 9.03125 12.2064 8.9375 12.2611C8.85156 12.3236 8.76562 12.3783 8.6875 12.433C8.60937 12.4877 8.53125 12.5424 8.46875 12.5892C8.39844 12.6361 8.33594 12.683 8.28125 12.7221C8.20312 12.7767 8.14062 12.8236 8.08594 12.8627C8 12.9252 7.97656 13.0502 8.03906 13.1361L9.69531 15.5736C9.75781 15.6596 9.86719 15.6908 9.96094 15.6361C10 15.6127 10.0547 15.5814 10.1094 15.5502C10.1562 15.5189 10.2109 15.4877 10.2734 15.4564C10.3359 15.4252 10.3984 15.3939 10.4687 15.3549C10.5391 15.3158 10.6094 15.2767 10.6875 15.2377C10.7656 15.1986 10.8516 15.1596 10.9375 15.1205C11.0234 15.0814 11.1172 15.0346 11.2109 14.9955C11.3047 14.9564 11.4062 14.9096 11.5078 14.8627C11.6094 14.8158 11.7109 14.7767 11.8203 14.7299C11.9297 14.6908 12.0391 14.6439 12.1484 14.6049C12.2578 14.5658 12.375 14.5267 12.4922 14.4799C12.5469 14.4564 12.6094 14.4408 12.6641 14.4174C12.7266 14.4017 12.7812 14.3783 12.8437 14.3627C12.9062 14.3471 12.9609 14.3236 13.0234 14.308C13.0859 14.2924 13.1484 14.2767 13.2031 14.2533C13.3281 14.2221 13.4453 14.183 13.5703 14.1517C13.6953 14.1205 13.8125 14.0892 13.9375 14.058C14 14.0424 14.0625 14.0267 14.125 14.0189C14.1875 14.0033 14.25 13.9955 14.3047 13.9799C14.3672 13.9642 14.4219 13.9564 14.4844 13.9408C14.5469 13.9252 14.6016 13.9174 14.6641 13.9096C14.7812 13.8861 14.8984 13.8705 15.0156 13.8471C15.1484 13.8471 15.2656 13.8314 15.375 13.8158ZM4.07812 16.9642C4.03125 17.0267 3.99219 17.0892 3.94531 17.1517C3.89844 17.2142 3.85937 17.2767 3.8125 17.3392C3.76562 17.4017 3.72656 17.4642 3.6875 17.5267C3.60156 17.6517 3.51562 17.7846 3.4375 17.9096C3.35937 18.0424 3.27344 18.1752 3.19531 18.3002L3.13281 18.3939L3.07812 18.4955C3.03906 18.558 3 18.6283 2.96875 18.6908C2.8125 18.9486 2.67969 19.2142 2.54687 19.4721C2.48437 19.5971 2.42187 19.7299 2.35937 19.8549C2.32812 19.9174 2.29687 19.9799 2.27344 20.0424C2.24219 20.1049 2.21875 20.1674 2.19531 20.2221C2.14062 20.3392 2.08594 20.4564 2.03906 20.5736C1.99219 20.6908 1.94531 20.8002 1.90625 20.9017C1.86719 21.0111 1.82031 21.1049 1.78125 21.2064C1.74219 21.3002 1.71094 21.3939 1.67969 21.4799C1.64844 21.5658 1.61719 21.6439 1.58594 21.722C1.5625 21.8002 1.53906 21.8705 1.51562 21.933C1.48437 22.0189 1.46094 22.0892 1.44531 22.1439C1.41406 22.2455 1.46094 22.3549 1.5625 22.3939L3.10156 22.9877C3.20312 23.0267 3.3125 22.9799 3.35937 22.8861C3.38281 22.8392 3.40625 22.7846 3.4375 22.7221C3.46094 22.6674 3.49219 22.6127 3.52344 22.5424C3.55469 22.4799 3.59375 22.4096 3.63281 22.3392C3.67187 22.2689 3.71094 22.1908 3.75 22.1049C3.78906 22.0267 3.84375 21.9408 3.89062 21.8549C3.9375 21.7689 3.99219 21.6752 4.04687 21.5814C4.10156 21.4877 4.16406 21.3939 4.21875 21.2924C4.25 21.2455 4.28125 21.1908 4.3125 21.1439C4.34375 21.0971 4.375 21.0424 4.40625 20.9955C4.46875 20.8939 4.53906 20.7924 4.60937 20.683C4.75781 20.4799 4.89844 20.2611 5.05469 20.0502C5.09375 19.9955 5.13281 19.9408 5.17187 19.8939L5.23437 19.8158L5.29688 19.7377C5.38281 19.6361 5.46094 19.5267 5.54687 19.4252C5.63281 19.3236 5.71875 19.2221 5.80469 19.1205C5.85156 19.0736 5.89062 19.0189 5.92969 18.9721C5.97656 18.9252 6.01562 18.8783 6.0625 18.8236C6.10937 18.7767 6.14844 18.7299 6.19531 18.683C6.23437 18.6361 6.28125 18.5892 6.32812 18.5424C6.41406 18.4486 6.50781 18.3627 6.59375 18.2689C6.67969 18.183 6.76562 18.0971 6.85156 18.0111C6.9375 17.9252 7.01562 17.8471 7.10156 17.7689C7.1875 17.6908 7.26562 17.6205 7.34375 17.5502C7.42187 17.4799 7.5 17.4174 7.57812 17.3471C7.65625 17.2846 7.72656 17.2221 7.78906 17.1674C7.85937 17.1127 7.92187 17.0658 7.97656 17.0189C8.03906 16.9721 8.09375 16.9252 8.14062 16.8861C8.16406 16.8705 8.19531 16.8471 8.22656 16.8236C8.25781 16.8002 8.28125 16.7846 8.30469 16.7611C8.35937 16.7221 8.40625 16.683 8.44531 16.6517C8.53906 16.5814 8.55469 16.4486 8.47656 16.3627L6.71875 14.2924C6.64062 14.2064 6.50781 14.1986 6.42187 14.2767C6.38281 14.3158 6.34375 14.3549 6.28906 14.4017C6.26562 14.4252 6.24219 14.4486 6.21875 14.4721C6.19531 14.4955 6.17187 14.5189 6.14062 14.5502C6.07812 14.6127 6.01562 14.6752 5.94531 14.7455C5.875 14.8158 5.80469 14.8939 5.72656 14.9721C5.65625 15.0502 5.57812 15.1361 5.5 15.2221C5.42187 15.308 5.33594 15.3939 5.25781 15.4877C5.17969 15.5814 5.09375 15.683 5.00781 15.7846C4.92187 15.8861 4.83594 15.9877 4.75 16.0971C4.66406 16.2064 4.57031 16.3158 4.48437 16.433C4.39844 16.5502 4.30469 16.6674 4.21875 16.7846C4.16406 16.8392 4.11719 16.9017 4.07812 16.9642ZM0.882812 24.1752C0.875 24.2221 0.859375 24.2846 0.84375 24.3549C0.828125 24.4174 0.820312 24.4877 0.804687 24.558C0.789062 24.6361 0.773437 24.7221 0.757812 24.8158C0.742187 24.9096 0.726562 25.0033 0.710938 25.1127C0.703125 25.1674 0.695312 25.2142 0.6875 25.2689C0.679688 25.3236 0.671875 25.3783 0.664062 25.433C0.632812 25.6595 0.59375 25.8939 0.578125 26.1517C0.5625 26.2767 0.554688 26.4096 0.539062 26.5424C0.53125 26.6752 0.523437 26.8158 0.507812 26.9564C0.484375 27.2377 0.484375 27.5267 0.46875 27.8158V27.9252V28.0346C0.46875 28.1049 0.46875 28.183 0.46875 28.2533C0.46875 28.3236 0.46875 28.4017 0.46875 28.4721V28.5814L0.476562 28.6908C0.484375 28.8392 0.492188 28.9877 0.492188 29.1361L0.5 29.2455V29.2846V29.308L0.507812 29.3627C0.515625 29.433 0.515625 29.5033 0.523437 29.5736C0.53125 29.6439 0.53125 29.7142 0.539062 29.7846C0.546875 29.8549 0.554687 29.933 0.5625 30.0033C0.570312 30.0736 0.578125 30.1439 0.585937 30.2142C0.585937 30.2533 0.59375 30.2846 0.59375 30.3236C0.601562 30.3549 0.601562 30.3939 0.609375 30.4252C0.625 30.5658 0.640625 30.6986 0.664062 30.8314C0.6875 30.9642 0.703125 31.0892 0.726562 31.2142C0.742188 31.3392 0.765625 31.4564 0.789062 31.5736C0.789062 31.5814 0.789062 31.5892 0.796875 31.6049C0.8125 31.6986 0.898437 31.7689 0.992187 31.7689H1.53906C1.65625 31.7689 1.75 31.6674 1.74219 31.558C1.74219 31.5267 1.74219 31.4955 1.73437 31.4642C1.72656 31.3549 1.71875 31.2377 1.71875 31.1127C1.71094 30.9955 1.71094 30.8705 1.70312 30.7455C1.70312 30.6205 1.70312 30.4877 1.70312 30.3627C1.70312 30.3314 1.70312 30.3002 1.70312 30.2611C1.70312 30.2299 1.70312 30.1986 1.70312 30.1674C1.70312 30.1049 1.70312 30.0346 1.71094 29.9721C1.71094 29.9096 1.71094 29.8392 1.71875 29.7767C1.71875 29.7064 1.72656 29.6361 1.72656 29.5658C1.72656 29.4955 1.73437 29.4252 1.73437 29.3549V29.3002V29.2767C1.73437 29.2689 1.73437 29.2846 1.73437 29.2846V29.2767V29.2611L1.74219 29.1596C1.75 29.0189 1.76562 28.8861 1.77344 28.7455L1.78125 28.6439L1.79687 28.5424C1.80469 28.4721 1.8125 28.4017 1.82031 28.3392C1.82812 28.2689 1.83594 28.2064 1.84375 28.1361L1.85156 28.0346L1.86719 27.933C1.90625 27.6674 1.94531 27.4017 1.99219 27.1439C2.01562 27.0189 2.03906 26.8939 2.0625 26.7689C2.08594 26.6517 2.11719 26.5267 2.14062 26.4174C2.1875 26.183 2.25 25.9721 2.29687 25.7767C2.3125 25.7299 2.32031 25.6752 2.33594 25.6283C2.35156 25.5814 2.35937 25.5346 2.375 25.4955C2.39844 25.4096 2.42969 25.3236 2.44531 25.2455C2.46875 25.1674 2.49219 25.0971 2.50781 25.0267C2.53125 24.9564 2.55469 24.8861 2.57031 24.8314C2.59375 24.7689 2.60937 24.7064 2.625 24.6596C2.66406 24.5502 2.60156 24.433 2.48437 24.4017L1.125 24.0346C1.02344 23.9955 0.90625 24.0658 0.882812 24.1752Z" fill="#CF2B2F" fill-opacity="0.5"/>
<path d="M39.3985 20.6754C39.2813 20.5425 39.1016 20.4644 38.8829 20.5191L35.5235 21.4019L30.5704 22.6988L16.7735 26.3238C15.0938 26.7613 14.0938 28.48 14.5391 30.1519C14.6641 30.6285 14.8907 31.0504 15.1954 31.4019C15.9532 32.2847 17.1719 32.7066 18.3672 32.3863C18.6016 32.3238 18.8282 32.23 19.0313 32.1285L31.5391 25.5347L36.3047 23.0269L39.2579 21.4722C39.5938 21.3004 39.5938 20.9019 39.3985 20.6754Z" fill="#CF2B2F"/>
<path d="M27.2577 17.8335C27.2968 17.8726 27.3359 17.9116 27.3827 17.9585C27.4296 18.0054 27.4687 18.0522 27.5234 18.1069C27.5702 18.1616 27.6249 18.2163 27.6796 18.271C27.7343 18.3335 27.789 18.396 27.8515 18.4585C27.9062 18.5288 27.9765 18.5913 28.0312 18.6694C28.0937 18.7397 28.1562 18.8179 28.2187 18.896C28.2812 18.9741 28.3515 19.0601 28.414 19.1382C28.4765 19.2241 28.5468 19.3101 28.6171 19.396C28.6796 19.4819 28.7499 19.5757 28.8124 19.6694C28.8437 19.7163 28.8827 19.7632 28.914 19.8101C28.9452 19.8569 28.9765 19.9038 29.0077 19.9507C29.039 19.9976 29.0702 20.0444 29.1093 20.0913C29.1406 20.1382 29.1718 20.1929 29.2031 20.2397C29.2656 20.3413 29.3281 20.4351 29.3906 20.5366C29.4531 20.6382 29.5077 20.7397 29.5702 20.8413L29.6171 20.9194L29.6406 20.9585L36.3202 19.2007C36.3124 19.1929 36.3124 19.1851 36.3046 19.1772C36.2656 19.1147 36.2265 19.0522 36.1952 18.9819C36.1562 18.9194 36.1171 18.8569 36.0781 18.7866C35.9999 18.6538 35.914 18.521 35.8281 18.3882C35.6484 18.1226 35.4687 17.8491 35.2734 17.5835C35.2265 17.5132 35.1718 17.4507 35.1249 17.3804L35.0546 17.2788L34.9765 17.1772C34.8749 17.0444 34.7734 16.9116 34.664 16.7788C34.5624 16.646 34.4531 16.5132 34.3437 16.3882C34.289 16.3257 34.2343 16.2554 34.1796 16.1929C34.1249 16.1304 34.0702 16.0679 34.0156 16.0054C33.9609 15.9429 33.9062 15.8804 33.8515 15.8179C33.7968 15.7554 33.7421 15.6929 33.6874 15.6382C33.5781 15.521 33.4687 15.4038 33.3593 15.2866C33.2499 15.1694 33.1406 15.0601 33.0312 14.9585C32.9218 14.8491 32.8202 14.7476 32.7109 14.646C32.6015 14.5444 32.4999 14.4507 32.4062 14.3569C32.3046 14.2632 32.2031 14.1772 32.1093 14.0913C32.0156 14.0054 31.9218 13.9272 31.8359 13.8569C31.7499 13.7866 31.664 13.7163 31.5859 13.646C31.5077 13.5835 31.4296 13.521 31.3671 13.4663C31.2968 13.4116 31.2343 13.3647 31.1718 13.3179C31.0859 13.2554 31.0156 13.2007 30.9609 13.1538C30.8749 13.0913 30.7499 13.0991 30.6796 13.1851L27.1562 17.4507C27.0859 17.5288 27.0937 17.646 27.1718 17.7241C27.1874 17.7632 27.2187 17.7944 27.2577 17.8335ZM29.0156 11.8647C28.9687 11.8413 28.9218 11.8101 28.8593 11.771C28.8359 11.7554 28.8046 11.7397 28.7734 11.7241C28.7421 11.7085 28.7031 11.6851 28.6718 11.6694C28.5859 11.6226 28.4999 11.5757 28.4062 11.521C28.3124 11.4663 28.2109 11.4116 28.1015 11.3569C27.9999 11.3022 27.8906 11.2554 27.7812 11.1929C27.6718 11.1382 27.5546 11.0757 27.4296 11.021C27.3046 10.9663 27.1796 10.9038 27.0468 10.8491C26.914 10.7866 26.7812 10.7319 26.6406 10.6772C26.4999 10.6226 26.3593 10.5601 26.2187 10.5054C26.1796 10.4897 26.1406 10.4741 26.1093 10.4663C24.0468 9.72412 22.3593 9.43506 22.3593 9.43506C22.2499 9.41943 22.1406 9.40381 22.0312 9.38037C21.9609 9.37256 21.8827 9.35693 21.8124 9.34912C21.7421 9.34131 21.6718 9.3335 21.6015 9.32568C21.4609 9.31006 21.3281 9.29443 21.1952 9.27881C21.0624 9.271 20.9374 9.25537 20.8124 9.24756C20.6874 9.23975 20.5702 9.22412 20.4609 9.22412C20.3515 9.21631 20.2421 9.21631 20.1406 9.2085C20.039 9.20068 19.9452 9.20068 19.8593 9.19287C19.7734 9.19287 19.6952 9.19287 19.6249 9.19287C19.5234 9.19287 19.4374 9.19287 19.3671 9.19287C19.2577 9.19287 19.1718 9.27881 19.164 9.38818L18.9609 13.6226C18.9531 13.7241 19.0312 13.8179 19.1327 13.8335C19.1796 13.8413 19.2265 13.8491 19.289 13.8569C19.3437 13.8647 19.3984 13.8726 19.4687 13.8804C19.5312 13.8882 19.6015 13.9038 19.6796 13.9194C19.7499 13.9351 19.8359 13.9429 19.914 13.9585C19.9843 13.9741 20.0624 13.9897 20.1406 14.0054C20.1406 14.0054 23.289 14.6772 24.8671 15.9194C24.9374 15.9663 24.9999 16.0132 25.0624 16.0522C25.1406 16.0991 25.2109 16.146 25.2734 16.1929C25.3359 16.2397 25.3906 16.2788 25.4452 16.3179C25.4999 16.3569 25.5468 16.3882 25.5937 16.4272C25.6171 16.4429 25.6484 16.4663 25.6718 16.4897C25.7031 16.5132 25.7265 16.5288 25.7499 16.5522C25.8046 16.5913 25.8515 16.6304 25.8984 16.6616C25.9921 16.7319 26.1249 16.7085 26.1874 16.6069L29.0937 12.1772C29.1484 12.0522 29.1171 11.9194 29.0156 11.8647Z" fill="#CF2B2F"/>
</svg>
