<svg width="32" height="32" viewBox="0 0 32 32" fill="none" xmlns="http://www.w3.org/2000/svg">
<path d="M16.0639 17.7562L8.23751 25.5506C8.05013 25.7423 7.82754 25.8381 7.56987 25.8381C7.31221 25.8381 7.08751 25.7418 6.89585 25.549C6.70418 25.3561 6.60835 25.1271 6.60835 24.8622C6.60835 24.5971 6.70418 24.3687 6.89585 24.177L19.2583 11.8464H14.7222V13.4437C14.7222 13.7152 14.6298 13.9428 14.445 14.1263C14.2603 14.3101 14.0314 14.402 13.7582 14.402C13.4852 14.402 13.2581 14.3101 13.0771 14.1263C12.8961 13.9428 12.8056 13.7152 12.8056 13.4437V10.8881C12.8056 10.6166 12.8974 10.3889 13.0813 10.2051C13.2648 10.0216 13.4924 9.92977 13.7639 9.92977H20.0889C20.3464 9.92977 20.5917 9.98299 20.8249 10.0895C21.0583 10.196 21.2602 10.3344 21.4306 10.5048L25.3597 14.37C25.8496 14.8599 26.4086 15.2538 27.0368 15.552C27.665 15.8502 28.3199 16.0631 29.0014 16.1909C29.2772 16.2388 29.5165 16.3625 29.7195 16.5621C29.9222 16.7619 30.0023 17.0002 29.9597 17.277C29.9171 17.5752 29.784 17.7988 29.5604 17.9478C29.3368 18.0969 29.076 18.1502 28.7778 18.1075C27.9046 17.9798 27.0794 17.7402 26.3021 17.3888C25.5248 17.0374 24.8167 16.5316 24.1778 15.8714L22.7083 14.402L19.0667 18.0437L20.9195 19.8964C21.1537 20.1307 21.2496 20.3969 21.207 20.695C21.1643 20.9932 21.0046 21.2274 20.7278 21.3978L14.85 24.8159C14.6157 24.9437 14.3696 24.9745 14.1115 24.9082C13.8533 24.8419 13.6617 24.6929 13.5365 24.461C13.4112 24.2291 13.3806 23.9853 13.4445 23.7298C13.5083 23.4742 13.6574 23.2825 13.8917 23.1548L18.6833 20.3756L16.0639 17.7562ZM5.45835 17.277C5.18682 17.277 4.95927 17.1845 4.77569 16.9997C4.59191 16.8151 4.50001 16.5862 4.50001 16.3129C4.50001 16.0399 4.59191 15.8128 4.77569 15.6319C4.95927 15.4509 5.18682 15.3603 5.45835 15.3603H9.93057C10.2021 15.3603 10.4297 15.4528 10.6135 15.6376C10.7971 15.8222 10.8889 16.0512 10.8889 16.3244C10.8889 16.5974 10.7971 16.8245 10.6135 17.0055C10.4297 17.1865 10.2021 17.277 9.93057 17.277H5.45835ZM2.90279 13.1242C2.63126 13.1242 2.40371 13.0318 2.22014 12.8469C2.03635 12.6623 1.94446 12.4334 1.94446 12.1601C1.94446 11.8871 2.03635 11.6601 2.22014 11.4791C2.40371 11.2981 2.63126 11.2075 2.90279 11.2075H7.37501C7.64654 11.2075 7.87418 11.3 8.05799 11.4848C8.24154 11.6695 8.33335 11.8984 8.33335 12.1716C8.33335 12.4446 8.24154 12.6717 8.05799 12.8527C7.87418 13.0337 7.64654 13.1242 7.37501 13.1242H2.90279ZM25.9028 10.5687C25.2954 10.5687 24.7709 10.3494 24.3292 9.91092C23.8875 9.47245 23.6667 8.94537 23.6667 8.32967C23.6667 7.71397 23.8875 7.18785 24.3292 6.7513C24.7709 6.31473 25.2954 6.09644 25.9028 6.09644C26.5102 6.09644 27.0347 6.31568 27.4764 6.75417C27.918 7.19264 28.1389 7.71972 28.1389 8.33542C28.1389 8.95112 27.918 9.47724 27.4764 9.9138C27.0347 10.3503 26.5102 10.5687 25.9028 10.5687ZM5.45835 8.97144C5.18682 8.97144 4.95927 8.87899 4.77569 8.69416C4.59191 8.50952 4.50001 8.28061 4.50001 8.00735C4.50001 7.73435 4.59191 7.50729 4.77569 7.3263C4.95927 7.1453 5.18682 7.05477 5.45835 7.05477H9.93057C10.2021 7.05477 10.4297 7.14722 10.6135 7.33205C10.7971 7.51669 10.8889 7.7456 10.8889 8.01885C10.8889 8.29185 10.7971 8.51891 10.6135 8.69991C10.4297 8.88091 10.2021 8.97144 9.93057 8.97144H5.45835Z" fill="white"/>
</svg>
