<svg width="16" height="17" viewBox="0 0 16 17" fill="none" xmlns="http://www.w3.org/2000/svg">
<path d="M7.31294 9.00756L6.14697 7.79367C6.05113 7.6872 5.93402 7.63395 5.79558 7.63395C5.65716 7.63395 5.53472 7.68186 5.42822 7.7777C5.32175 7.88417 5.26849 8.00664 5.26849 8.14506C5.26849 8.28347 5.32175 8.40595 5.42822 8.51242L6.97752 10.0458C7.07335 10.1416 7.18516 10.1895 7.31294 10.1895C7.44072 10.1895 7.55252 10.1416 7.64835 10.0458L10.5713 7.13881C10.6671 7.04297 10.715 6.92583 10.715 6.78742C10.715 6.649 10.6618 6.53186 10.5553 6.43603C10.4595 6.35083 10.345 6.3109 10.2119 6.31624C10.0788 6.32157 9.96966 6.36681 9.88447 6.452L7.31294 9.00756ZM5.63586 14.5819L4.64558 12.8888L2.66503 12.4895C2.5479 12.4682 2.4494 12.4043 2.36954 12.2978C2.28968 12.1914 2.2604 12.0796 2.28169 11.9624L2.50531 10.0458L1.2435 8.57631C1.15831 8.49111 1.11572 8.38464 1.11572 8.25686C1.11572 8.12909 1.15831 8.02261 1.2435 7.93742L2.50531 6.48395L2.28169 4.56728C2.2604 4.45014 2.28968 4.33833 2.36954 4.23186C2.4494 4.12539 2.5479 4.0615 2.66503 4.0402L4.64558 3.64089L5.63586 1.93186C5.69974 1.82538 5.79027 1.75084 5.90738 1.70825C6.02452 1.66566 6.14166 1.67098 6.25877 1.72422L7.99974 2.53881L9.74072 1.72422C9.85786 1.67098 9.975 1.663 10.0921 1.70027C10.2092 1.73753 10.2997 1.80941 10.3636 1.91589L11.3699 3.64089L13.3345 4.0402C13.4516 4.0615 13.5501 4.12539 13.63 4.23186C13.7098 4.33833 13.7391 4.45014 13.7178 4.56728L13.4942 6.48395L14.756 7.93742C14.8412 8.02261 14.8838 8.12909 14.8838 8.25686C14.8838 8.38464 14.8412 8.49111 14.756 8.57631L13.4942 10.0458L13.7178 11.9624C13.7391 12.0796 13.7098 12.1914 13.63 12.2978C13.5501 12.4043 13.4516 12.4682 13.3345 12.4895L11.3699 12.8888L10.3636 14.5978C10.2997 14.7043 10.2092 14.7762 10.0921 14.8135C9.975 14.8507 9.85786 14.8428 9.74072 14.7895L7.99974 13.9749L6.25877 14.7895C6.14166 14.8428 6.02452 14.8481 5.90738 14.8055C5.79027 14.7629 5.69974 14.6883 5.63586 14.5819Z" fill="#007AFF"/>
</svg>
