<svg width="33" height="32" viewBox="0 0 33 32" fill="none" xmlns="http://www.w3.org/2000/svg">
<path d="M18.8709 29.6395C19.0413 29.6821 19.2223 29.7034 19.4139 29.7034C19.6056 29.7034 19.7866 29.6821 19.957 29.6395L29.4445 26.7325C29.4445 25.5825 29.1197 24.7254 28.4702 24.161C27.8206 23.5967 26.8889 23.3145 25.675 23.3145H20.0848C19.1264 23.3145 18.3864 23.2666 17.8646 23.1707C17.3428 23.0749 16.9116 22.9738 16.5709 22.8673L14.6223 22.1964C14.4945 22.1538 14.4039 22.074 14.3507 21.9569C14.2975 21.8397 14.2921 21.7173 14.3348 21.5895C14.3774 21.4617 14.4572 21.3712 14.5743 21.318C14.6914 21.2647 14.8139 21.2594 14.9417 21.302L16.8264 21.9089C17.3375 22.0793 17.806 22.1964 18.232 22.2603C18.6579 22.3242 19.1477 22.3562 19.7014 22.3562H22.0334C22.2038 22.3562 22.3421 22.3029 22.4486 22.1964C22.5551 22.0899 22.6084 21.9515 22.6084 21.7812C22.6084 21.2913 22.438 20.8069 22.0973 20.3277C21.7565 19.8485 21.2667 19.4918 20.6278 19.2575L12.8014 16.3187C12.6949 16.276 12.5831 16.2441 12.466 16.2228C12.3489 16.2015 12.2371 16.1909 12.1306 16.1909H9.4792V26.9562L18.8709 29.6395ZM2.61115 26.8603C2.61115 27.3927 2.79749 27.8453 3.17017 28.218C3.54286 28.5906 3.99541 28.777 4.52781 28.777H5.61392C6.14633 28.777 6.59888 28.5906 6.97156 28.218C7.34424 27.8453 7.53059 27.3927 7.53059 26.8603V18.1075C7.53059 17.5752 7.34424 17.1226 6.97156 16.7499C6.59888 16.3772 6.14633 16.1909 5.61392 16.1909H4.52781C3.99541 16.1909 3.54286 16.3772 3.17017 16.7499C2.79749 17.1226 2.61115 17.5752 2.61115 18.1075V26.8603ZM21.9695 15.9992C21.7352 15.9992 21.501 15.9513 21.2667 15.8555C21.0324 15.7596 20.8195 15.6265 20.6278 15.4562L16.7306 11.6548C16.0917 11.0372 15.5593 10.3504 15.1334 9.59435C14.7074 8.83836 14.4945 8.0131 14.4945 7.11866C14.4945 6.03255 14.8725 5.11148 15.6285 4.35546C16.3845 3.59945 17.3056 3.22144 18.3917 3.22144C19.1158 3.22144 19.776 3.40778 20.3723 3.78046C20.9685 4.15315 21.501 4.61634 21.9695 5.17005C22.438 4.61634 22.9704 4.15315 23.5667 3.78046C24.163 3.40778 24.8232 3.22144 25.5473 3.22144C26.6334 3.22144 27.5545 3.59945 28.3105 4.35546C29.0664 5.11148 29.4445 6.03255 29.4445 7.11866C29.4445 8.0131 29.2315 8.83836 28.8056 9.59435C28.3796 10.3504 27.8473 11.0372 27.2084 11.6548L23.3111 15.4562C23.1195 15.6265 22.9065 15.7596 22.6723 15.8555C22.438 15.9513 22.2038 15.9992 21.9695 15.9992Z" fill="white"/>
</svg>
